<?xml version="1.0" encoding="UTF-8" standalone="no"?>
<!-- Created with Inkscape (http://www.inkscape.org/) -->

<svg
   version="1.1"
   id="svg1"
   width="416.09961"
   height="96.276093"
   viewBox="0 0 416.09961 96.276091"
   sodipodi:docname="logo elecciones 2027 variacion colores.pdf"
   xmlns:inkscape="http://www.inkscape.org/namespaces/inkscape"
   xmlns:sodipodi="http://sodipodi.sourceforge.net/DTD/sodipodi-0.dtd"
   xmlns="http://www.w3.org/2000/svg"
   xmlns:svg="http://www.w3.org/2000/svg">
  <defs
     id="defs1">
    <clipPath
       clipPathUnits="userSpaceOnUse"
       id="clipPath191">
      <path
         d="M 0,841.89 H 595.276 V 0 H 0 Z"
         transform="translate(-141.2437,-596.05331)"
         id="path191" />
    </clipPath>
    <clipPath
       clipPathUnits="userSpaceOnUse"
       id="clipPath193">
      <path
         d="M 0,841.89 H 595.276 V 0 H 0 Z"
         transform="translate(-142.6789,-598.51402)"
         id="path193" />
    </clipPath>
    <clipPath
       clipPathUnits="userSpaceOnUse"
       id="clipPath195">
      <path
         d="M 0,841.89 H 595.276 V 0 H 0 Z"
         transform="translate(-147.71301,-595.89922)"
         id="path195" />
    </clipPath>
    <clipPath
       clipPathUnits="userSpaceOnUse"
       id="clipPath197">
      <path
         d="M 0,841.89 H 595.276 V 0 H 0 Z"
         transform="translate(-153.2728,-596.94562)"
         id="path197" />
    </clipPath>
    <clipPath
       clipPathUnits="userSpaceOnUse"
       id="clipPath199">
      <path
         d="M 0,841.89 H 595.276 V 0 H 0 Z"
         transform="translate(-160.70091,-598.23611)"
         id="path199" />
    </clipPath>
    <clipPath
       clipPathUnits="userSpaceOnUse"
       id="clipPath201">
      <path
         d="M 0,841.89 H 595.276 V 0 H 0 Z"
         transform="translate(-163.1161,-601.17551)"
         id="path201" />
    </clipPath>
    <clipPath
       clipPathUnits="userSpaceOnUse"
       id="clipPath203">
      <path
         d="M 0,841.89 H 595.276 V 0 H 0 Z"
         transform="translate(-166.0284,-598.51402)"
         id="path203" />
    </clipPath>
    <clipPath
       clipPathUnits="userSpaceOnUse"
       id="clipPath205">
      <path
         d="M 0,841.89 H 595.276 V 0 H 0 Z"
         transform="translate(-172.7722,-595.89922)"
         id="path205" />
    </clipPath>
    <clipPath
       clipPathUnits="userSpaceOnUse"
       id="clipPath207">
      <path
         d="M 0,841.89 H 595.276 V 0 H 0 Z"
         transform="translate(-181.07001,-598.11911)"
         id="path207" />
    </clipPath>
    <clipPath
       clipPathUnits="userSpaceOnUse"
       id="clipPath209">
      <path
         d="M 0,841.89 H 595.276 V 0 H 0 Z"
         transform="translate(-187.43091,-596.05331)"
         id="path209" />
    </clipPath>
    <clipPath
       clipPathUnits="userSpaceOnUse"
       id="clipPath211">
      <path
         d="M 0,841.89 H 595.276 V 0 H 0 Z"
         id="path211" />
    </clipPath>
    <clipPath
       clipPathUnits="userSpaceOnUse"
       id="clipPath213">
      <path
         d="M 0,841.89 H 595.276 V 0 H 0 Z"
         transform="translate(-191.26221,-598.51402)"
         id="path213" />
    </clipPath>
    <clipPath
       clipPathUnits="userSpaceOnUse"
       id="clipPath215">
      <path
         d="M 0,841.89 H 595.276 V 0 H 0 Z"
         transform="translate(-196.29531,-595.89922)"
         id="path215" />
    </clipPath>
    <clipPath
       clipPathUnits="userSpaceOnUse"
       id="clipPath217">
      <path
         d="M 0,841.89 H 595.276 V 0 H 0 Z"
         transform="translate(-204.59841,-598.11911)"
         id="path217" />
    </clipPath>
    <clipPath
       clipPathUnits="userSpaceOnUse"
       id="clipPath219">
      <path
         d="M 0,841.89 H 595.276 V 0 H 0 Z"
         transform="translate(-207.13981,-601.17551)"
         id="path219" />
    </clipPath>
    <clipPath
       clipPathUnits="userSpaceOnUse"
       id="clipPath221">
      <path
         d="M 0,841.89 H 595.276 V 0 H 0 Z"
         transform="translate(-216.04041,-598.23611)"
         id="path221" />
    </clipPath>
    <clipPath
       clipPathUnits="userSpaceOnUse"
       id="clipPath223">
      <path
         d="M 0,841.89 H 595.276 V 0 H 0 Z"
         transform="translate(-217.1788,-601.17551)"
         id="path223" />
    </clipPath>
    <clipPath
       clipPathUnits="userSpaceOnUse"
       id="clipPath225">
      <path
         d="M 0,841.89 H 595.276 V 0 H 0 Z"
         transform="translate(-224.36671,-598.23611)"
         id="path225" />
    </clipPath>
    <clipPath
       clipPathUnits="userSpaceOnUse"
       id="clipPath227">
      <path
         d="M 0,841.89 H 595.276 V 0 H 0 Z"
         transform="translate(-229.50241,-596.05331)"
         id="path227" />
    </clipPath>
    <clipPath
       clipPathUnits="userSpaceOnUse"
       id="clipPath229">
      <path
         d="M 0,841.89 H 595.276 V 0 H 0 Z"
         transform="translate(-231.59941,-600.36682)"
         id="path229" />
    </clipPath>
    <clipPath
       clipPathUnits="userSpaceOnUse"
       id="clipPath231">
      <path
         d="M 0,841.89 H 595.276 V 0 H 0 Z"
         transform="translate(-235.41651,-598.51402)"
         id="path231" />
    </clipPath>
    <clipPath
       clipPathUnits="userSpaceOnUse"
       id="clipPath233">
      <path
         d="M 0,841.89 H 595.276 V 0 H 0 Z"
         transform="translate(-241.46221,-598.77271)"
         id="path233" />
    </clipPath>
    <clipPath
       clipPathUnits="userSpaceOnUse"
       id="clipPath235">
      <path
         d="M 0,841.89 H 595.276 V 0 H 0 Z"
         transform="translate(-247.92571,-598.11911)"
         id="path235" />
    </clipPath>
    <clipPath
       clipPathUnits="userSpaceOnUse"
       id="clipPath237">
      <path
         d="M 0,841.89 H 595.276 V 0 H 0 Z"
         transform="translate(-250.46881,-601.17551)"
         id="path237" />
    </clipPath>
    <clipPath
       clipPathUnits="userSpaceOnUse"
       id="clipPath239">
      <path
         d="M 0,841.89 H 595.276 V 0 H 0 Z"
         transform="translate(-163.1664,-619.33762)"
         id="path239" />
    </clipPath>
    <clipPath
       clipPathUnits="userSpaceOnUse"
       id="clipPath241">
      <path
         d="M 0,841.89 H 595.276 V 0 H 0 Z"
         transform="translate(-174.766,-604.83322)"
         id="path241" />
    </clipPath>
    <clipPath
       clipPathUnits="userSpaceOnUse"
       id="clipPath243">
      <path
         d="M 0,841.89 H 595.276 V 0 H 0 Z"
         transform="translate(-208.33141,-619.18322)"
         id="path243" />
    </clipPath>
    <clipPath
       clipPathUnits="userSpaceOnUse"
       id="clipPath245">
      <path
         d="M 0,841.89 H 595.276 V 0 H 0 Z"
         transform="translate(-147.88371,-629.17162)"
         id="path245" />
    </clipPath>
    <clipPath
       clipPathUnits="userSpaceOnUse"
       id="clipPath247">
      <path
         d="M 0,841.89 H 595.276 V 0 H 0 Z"
         transform="translate(-168.47541,-634.67752)"
         id="path247" />
    </clipPath>
    <clipPath
       clipPathUnits="userSpaceOnUse"
       id="clipPath249">
      <path
         d="M 0,841.89 H 595.276 V 0 H 0 Z"
         transform="translate(-220.83361,-606.13652)"
         id="path249" />
    </clipPath>
    <clipPath
       clipPathUnits="userSpaceOnUse"
       id="clipPath251">
      <path
         d="M 0,841.89 H 595.276 V 0 H 0 Z"
         transform="translate(-157.7596,-632.39362)"
         id="path251" />
    </clipPath>
    <clipPath
       clipPathUnits="userSpaceOnUse"
       id="clipPath253">
      <path
         d="M 0,841.89 H 595.276 V 0 H 0 Z"
         id="path253" />
    </clipPath>
    <clipPath
       clipPathUnits="userSpaceOnUse"
       id="clipPath255">
      <path
         d="M 0,841.89 H 595.276 V 0 H 0 Z"
         transform="translate(-281.99091,-664.77452)"
         id="path255" />
    </clipPath>
    <clipPath
       clipPathUnits="userSpaceOnUse"
       id="clipPath257">
      <path
         d="M 0,841.89 H 595.276 V 0 H 0 Z"
         transform="translate(-296.67661,-643.92791)"
         id="path257" />
    </clipPath>
    <clipPath
       clipPathUnits="userSpaceOnUse"
       id="clipPath259">
      <path
         d="M 0,841.89 H 595.276 V 0 H 0 Z"
         transform="translate(-308.59821,-664.77452)"
         id="path259" />
    </clipPath>
    <clipPath
       clipPathUnits="userSpaceOnUse"
       id="clipPath261">
      <path
         d="M 0,841.89 H 595.276 V 0 H 0 Z"
         transform="translate(-322.30151,-660.49541)"
         id="path261" />
    </clipPath>
    <clipPath
       clipPathUnits="userSpaceOnUse"
       id="clipPath263">
      <path
         d="M 0,841.89 H 595.276 V 0 H 0 Z"
         transform="translate(-346.27821,-660.49541)"
         id="path263" />
    </clipPath>
    <clipPath
       clipPathUnits="userSpaceOnUse"
       id="clipPath265">
      <path
         d="M 0,841.89 H 595.276 V 0 H 0 Z"
         id="path265" />
    </clipPath>
    <clipPath
       clipPathUnits="userSpaceOnUse"
       id="clipPath267">
      <path
         d="M 0,841.89 H 595.276 V 0 H 0 Z"
         transform="translate(-390.48531,-645.02692)"
         id="path267" />
    </clipPath>
    <clipPath
       clipPathUnits="userSpaceOnUse"
       id="clipPath269">
      <path
         d="M 0,841.89 H 595.276 V 0 H 0 Z"
         transform="translate(-416.42671,-642.66242)"
         id="path269" />
    </clipPath>
    <clipPath
       clipPathUnits="userSpaceOnUse"
       id="clipPath271">
      <path
         d="M 0,841.89 H 595.276 V 0 H 0 Z"
         transform="translate(-421.75481,-664.77452)"
         id="path271" />
    </clipPath>
    <clipPath
       clipPathUnits="userSpaceOnUse"
       id="clipPath273">
      <path
         d="M 0,841.89 H 595.276 V 0 H 0 Z"
         transform="translate(-437.73921,-643.22852)"
         id="path273" />
    </clipPath>
    <clipPath
       clipPathUnits="userSpaceOnUse"
       id="clipPath275">
      <path
         d="M 0,841.89 H 595.276 V 0 H 0 Z"
         transform="translate(-283.56381,-619.70912)"
         id="path275" />
    </clipPath>
    <clipPath
       clipPathUnits="userSpaceOnUse"
       id="clipPath277">
      <path
         d="M 0,841.89 H 595.276 V 0 H 0 Z"
         transform="translate(-299.2342,-635.55551)"
         id="path277" />
    </clipPath>
    <clipPath
       clipPathUnits="userSpaceOnUse"
       id="clipPath279">
      <path
         d="M 0,841.89 H 595.276 V 0 H 0 Z"
         transform="translate(-309.61331,-633.63392)"
         id="path279" />
    </clipPath>
    <clipPath
       clipPathUnits="userSpaceOnUse"
       id="clipPath281">
      <path
         d="M 0,841.89 H 595.276 V 0 H 0 Z"
         transform="translate(-329.55981,-633.63392)"
         id="path281" />
    </clipPath>
    <clipPath
       clipPathUnits="userSpaceOnUse"
       id="clipPath283">
      <path
         d="M 0,841.89 H 595.276 V 0 H 0 Z"
         id="path283" />
    </clipPath>
    <clipPath
       clipPathUnits="userSpaceOnUse"
       id="clipPath285">
      <path
         d="M 0,841.89 H 595.276 V 0 H 0 Z"
         transform="translate(-367.32861,-622.57781)"
         id="path285" />
    </clipPath>
    <clipPath
       clipPathUnits="userSpaceOnUse"
       id="clipPath287">
      <path
         d="M 0,841.89 H 595.276 V 0 H 0 Z"
         transform="translate(-391.11851,-619.23542)"
         id="path287" />
    </clipPath>
    <clipPath
       clipPathUnits="userSpaceOnUse"
       id="clipPath289">
      <path
         d="M 0,841.89 H 595.276 V 0 H 0 Z"
         transform="translate(-404.67791,-625.59562)"
         id="path289" />
    </clipPath>
    <clipPath
       clipPathUnits="userSpaceOnUse"
       id="clipPath291">
      <path
         d="M 0,841.89 H 595.276 V 0 H 0 Z"
         transform="translate(-415.17891,-621.72532)"
         id="path291" />
    </clipPath>
    <clipPath
       clipPathUnits="userSpaceOnUse"
       id="clipPath293">
      <path
         d="M 0,841.89 H 595.276 V 0 H 0 Z"
         transform="translate(-426.22101,-635.55551)"
         id="path293" />
    </clipPath>
    <clipPath
       clipPathUnits="userSpaceOnUse"
       id="clipPath295">
      <path
         d="M 0,841.89 H 595.276 V 0 H 0 Z"
         transform="translate(-439.13041,-619.70912)"
         id="path295" />
    </clipPath>
    <clipPath
       clipPathUnits="userSpaceOnUse"
       id="clipPath297">
      <path
         d="M 0,841.89 H 595.276 V 0 H 0 Z"
         transform="translate(-295.4593,-613.59152)"
         id="path297" />
    </clipPath>
    <clipPath
       clipPathUnits="userSpaceOnUse"
       id="clipPath299">
      <path
         d="M 0,841.89 H 595.276 V 0 H 0 Z"
         transform="translate(-302.07851,-609.45092)"
         id="path299" />
    </clipPath>
    <clipPath
       clipPathUnits="userSpaceOnUse"
       id="clipPath301">
      <path
         d="M 0,841.89 H 595.276 V 0 H 0 Z"
         transform="translate(-328.90971,-606.26702)"
         id="path301" />
    </clipPath>
    <clipPath
       clipPathUnits="userSpaceOnUse"
       id="clipPath303">
      <path
         d="M 0,841.89 H 595.276 V 0 H 0 Z"
         transform="translate(-336.10821,-609.45092)"
         id="path303" />
    </clipPath>
    <clipPath
       clipPathUnits="userSpaceOnUse"
       id="clipPath305">
      <path
         d="M 0,841.89 H 595.276 V 0 H 0 Z"
         transform="translate(-354.85971,-609.45092)"
         id="path305" />
    </clipPath>
    <clipPath
       clipPathUnits="userSpaceOnUse"
       id="clipPath307">
      <path
         d="M 0,841.89 H 595.276 V 0 H 0 Z"
         transform="translate(-376.12841,-596.37521)"
         id="path307" />
    </clipPath>
    <clipPath
       clipPathUnits="userSpaceOnUse"
       id="clipPath309">
      <path
         d="M 0,841.89 H 595.276 V 0 H 0 Z"
         transform="translate(-393.36951,-599.99962)"
         id="path309" />
    </clipPath>
    <clipPath
       clipPathUnits="userSpaceOnUse"
       id="clipPath311">
      <path
         d="M 0,841.89 H 595.276 V 0 H 0 Z"
         transform="translate(-416.04771,-609.27482)"
         id="path311" />
    </clipPath>
    <clipPath
       clipPathUnits="userSpaceOnUse"
       id="clipPath313">
      <path
         d="M 0,841.89 H 595.276 V 0 H 0 Z"
         transform="translate(-423.29661,-599.99962)"
         id="path313" />
    </clipPath>
    <clipPath
       clipPathUnits="userSpaceOnUse"
       id="clipPath315">
      <path
         d="M 0,841.89 H 595.276 V 0 H 0 Z"
         transform="translate(-448.34081,-611.07442)"
         id="path315" />
    </clipPath>
  </defs>
  <sodipodi:namedview
     id="namedview1"
     pagecolor="#ffffff"
     bordercolor="#000000"
     borderopacity="0.25"
     inkscape:showpageshadow="2"
     inkscape:pageopacity="0.0"
     inkscape:pagecheckerboard="0"
     inkscape:deskcolor="#d1d1d1">
    <inkscape:page
       x="0"
       y="0"
       width="416.09961"
       height="96.276093"
       id="page2"
       margin="0"
       bleed="0" />
  </sodipodi:namedview>
  <g
     id="layer-MC0"
     inkscape:groupmode="layer"
     inkscape:label="Capa 1"
     transform="translate(-182.6156,-232.04526)">
    <path
       id="path190"
       d="m 0,0 c -0.242,-0.117 -0.77,-0.246 -1.439,-0.246 -1.772,0 -2.843,1.063 -2.843,2.666 0,1.739 1.275,2.786 2.979,2.786 0.667,0 1.142,-0.133 1.352,-0.232 L -0.175,4.207 c -0.267,0.107 -0.627,0.201 -1.092,0.201 -1.133,0 -1.945,-0.673 -1.945,-1.937 0,-1.161 0.717,-1.909 1.936,-1.909 0.417,0 0.843,0.08 1.114,0.199 z"
       style="fill:#211c1d;fill-opacity:1;fill-rule:nonzero;stroke:none"
       transform="matrix(1.3333333,0,0,-1.3333333,188.32493,327.78227)"
       clip-path="url(#clipPath191)"
       inkscape:export-filename="path190-color.png"
       inkscape:export-xdpi="400.74985"
       inkscape:export-ydpi="400.74985" />
    <path
       id="path192"
       d="m 0,0 c 0,-1.077 0.569,-1.936 1.544,-1.936 0.983,0 1.539,0.871 1.539,1.978 0,0.994 -0.523,1.937 -1.539,1.937 C 0.54,1.979 0,1.09 0,0 m 4.157,0.075 c 0,-1.767 -1.13,-2.782 -2.669,-2.782 -1.571,0 -2.562,1.139 -2.562,2.693 0,1.621 1.074,2.759 2.642,2.759 1.631,0 2.589,-1.164 2.589,-2.67"
       style="fill:#211c1d;fill-opacity:1;fill-rule:nonzero;stroke:none"
       transform="matrix(1.3333333,0,0,-1.3333333,190.23853,324.50133)"
       clip-path="url(#clipPath193)" />
    <path
       id="path194"
       d="M 0,0 V 5.276 H 1.155 L 2.595,3.013 C 2.965,2.425 3.286,1.817 3.547,1.244 H 3.561 C 3.493,1.946 3.469,2.628 3.469,3.436 v 1.84 H 4.413 V 0 H 3.362 L 1.903,2.318 C 1.554,2.896 1.184,3.544 0.904,4.141 L 0.882,4.134 C 0.925,3.45 0.934,2.755 0.934,1.886 V 0 Z"
       style="fill:#211c1d;fill-opacity:1;fill-rule:nonzero;stroke:none"
       transform="matrix(1.3333333,0,0,-1.3333333,196.95067,327.98773)"
       clip-path="url(#clipPath195)" />
    <path
       id="path196"
       d="m 0,0 c 0.332,-0.181 0.828,-0.338 1.345,-0.338 0.657,0 1.018,0.296 1.018,0.724 0,0.399 -0.282,0.633 -0.994,0.876 -0.912,0.316 -1.505,0.773 -1.505,1.534 0,0.86 0.763,1.517 1.973,1.517 0.602,0 1.044,-0.121 1.34,-0.263 L 2.921,3.276 c -0.196,0.098 -0.583,0.246 -1.1,0.246 -0.645,0 -0.925,-0.326 -0.925,-0.633 0,-0.407 0.317,-0.592 1.065,-0.863 0.96,-0.348 1.438,-0.81 1.438,-1.573 0,-0.842 -0.683,-1.591 -2.12,-1.591 -0.585,0 -1.199,0.167 -1.502,0.339 z"
       style="fill:#211c1d;fill-opacity:1;fill-rule:nonzero;stroke:none"
       transform="matrix(1.3333333,0,0,-1.3333333,204.36373,326.59253)"
       clip-path="url(#clipPath197)" />
    <path
       id="path198"
       d="m 0,0 h -2.097 v -1.547 h 2.345 v -0.79 h -3.362 v 5.276 h 3.24 V 2.152 H -2.097 V 0.787 H 0 Z"
       style="fill:#211c1d;fill-opacity:1;fill-rule:nonzero;stroke:none"
       transform="matrix(1.3333333,0,0,-1.3333333,214.26787,324.87187)"
       clip-path="url(#clipPath199)" />
    <path
       id="path200"
       d="m 0,0 h 1.016 v -3.42 c 0,-1.458 -0.746,-1.948 -1.853,-1.948 -0.28,0 -0.639,0.052 -0.85,0.127 l 0.123,0.776 C -1.401,-4.512 -1.176,-4.56 -0.939,-4.56 -0.36,-4.56 0,-4.305 0,-3.39 Z"
       style="fill:#211c1d;fill-opacity:1;fill-rule:nonzero;stroke:none"
       transform="matrix(1.3333333,0,0,-1.3333333,217.48813,320.95267)"
       clip-path="url(#clipPath201)" />
    <path
       id="path202"
       d="m 0,0 c 0,-1.077 0.575,-1.936 1.545,-1.936 0.982,0 1.54,0.871 1.54,1.978 0,0.994 -0.52,1.937 -1.54,1.937 C 0.542,1.979 0,1.09 0,0 m 4.162,0.075 c 0,-1.767 -1.138,-2.782 -2.671,-2.782 -1.571,0 -2.56,1.139 -2.56,2.693 0,1.621 1.069,2.759 2.642,2.759 1.627,0 2.589,-1.164 2.589,-2.67"
       style="fill:#211c1d;fill-opacity:1;fill-rule:nonzero;stroke:none"
       transform="matrix(1.3333333,0,0,-1.3333333,221.3712,324.50133)"
       clip-path="url(#clipPath203)" />
    <path
       id="path204"
       d="M 0,0 V 5.276 H 1.16 L 2.596,3.013 C 2.967,2.425 3.286,1.817 3.547,1.244 H 3.561 C 3.497,1.946 3.473,2.628 3.473,3.436 v 1.84 H 4.418 V 0 H 3.366 L 1.911,2.318 C 1.552,2.896 1.18,3.544 0.91,4.141 L 0.882,4.134 C 0.932,3.45 0.935,2.755 0.935,1.886 V 0 Z"
       style="fill:#211c1d;fill-opacity:1;fill-rule:nonzero;stroke:none"
       transform="matrix(1.3333333,0,0,-1.3333333,230.36293,327.98773)"
       clip-path="url(#clipPath205)" />
    <path
       id="path206"
       d="m 0,0 -0.437,1.303 c -0.112,0.32 -0.202,0.679 -0.279,0.981 H -0.734 C -0.82,1.982 -0.903,1.62 -0.999,1.303 L -1.43,0 Z m -1.596,-0.727 -0.477,-1.492 h -1.056 l 1.789,5.275 h 1.299 L 1.766,-2.219 H 0.678 L 0.17,-0.727 Z"
       style="fill:#211c1d;fill-opacity:1;fill-rule:nonzero;stroke:none"
       transform="matrix(1.3333333,0,0,-1.3333333,241.42667,325.02787)"
       clip-path="url(#clipPath207)" />
    <path
       id="path208"
       d="m 0,0 c -0.241,-0.117 -0.764,-0.246 -1.433,-0.246 -1.774,0 -2.846,1.063 -2.846,2.666 0,1.739 1.271,2.786 2.975,2.786 0.666,0 1.148,-0.133 1.357,-0.232 L -0.171,4.207 c -0.265,0.107 -0.628,0.201 -1.092,0.201 -1.134,0 -1.951,-0.673 -1.951,-1.937 0,-1.161 0.719,-1.909 1.942,-1.909 0.413,0 0.844,0.08 1.109,0.199 z"
       style="fill:#211c1d;fill-opacity:1;fill-rule:nonzero;stroke:none"
       transform="matrix(1.3333333,0,0,-1.3333333,249.90787,327.78227)"
       clip-path="url(#clipPath209)" />
    <path
       id="path210"
       d="m 189.315,595.899 h -1.017 v 5.276 h 1.017 z"
       style="fill:#211c1d;fill-opacity:1;fill-rule:nonzero;stroke:none"
       transform="matrix(1.3333333,0,0,-1.3333333,0,1122.52)"
       clip-path="url(#clipPath211)" />
    <path
       id="path212"
       d="m 0,0 c 0,-1.077 0.578,-1.936 1.548,-1.936 0.984,0 1.537,0.871 1.537,1.978 0,0.994 -0.519,1.937 -1.537,1.937 C 0.541,1.979 0,1.09 0,0 m 4.16,0.075 c 0,-1.767 -1.128,-2.782 -2.67,-2.782 -1.568,0 -2.561,1.139 -2.561,2.693 0,1.621 1.071,2.759 2.643,2.759 1.63,0 2.588,-1.164 2.588,-2.67"
       style="fill:#211c1d;fill-opacity:1;fill-rule:nonzero;stroke:none"
       transform="matrix(1.3333333,0,0,-1.3333333,255.01627,324.50133)"
       clip-path="url(#clipPath213)" />
    <path
       id="path214"
       d="M 0,0 V 5.276 H 1.161 L 2.597,3.013 C 2.969,2.425 3.293,1.817 3.548,1.244 H 3.562 C 3.495,1.946 3.47,2.628 3.47,3.436 v 1.84 H 4.415 V 0 H 3.367 L 1.914,2.318 C 1.561,2.896 1.181,3.544 0.913,4.141 L 0.889,4.134 C 0.929,3.45 0.932,2.755 0.932,1.886 V 0 Z"
       style="fill:#211c1d;fill-opacity:1;fill-rule:nonzero;stroke:none"
       transform="matrix(1.3333333,0,0,-1.3333333,261.72707,327.98773)"
       clip-path="url(#clipPath215)" />
    <path
       id="path216"
       d="m 0,0 -0.442,1.303 c -0.107,0.32 -0.197,0.679 -0.28,0.981 H -0.737 C -0.821,1.982 -0.904,1.62 -1.001,1.303 L -1.433,0 Z m -1.6,-0.727 -0.48,-1.492 h -1.051 l 1.787,5.275 h 1.297 L 1.766,-2.219 H 0.675 l -0.508,1.492 z"
       style="fill:#211c1d;fill-opacity:1;fill-rule:nonzero;stroke:none"
       transform="matrix(1.3333333,0,0,-1.3333333,272.79787,325.02787)"
       clip-path="url(#clipPath217)" />
    <path
       id="path218"
       d="M 0,0 H 1.012 V -4.468 H 3.301 V -5.276 H 0 Z"
       style="fill:#211c1d;fill-opacity:1;fill-rule:nonzero;stroke:none"
       transform="matrix(1.3333333,0,0,-1.3333333,276.1864,320.95267)"
       clip-path="url(#clipPath219)" />
    <path
       id="path220"
       d="m 0,0 h -2.1 v -1.547 h 2.348 v -0.79 H -3.12 V 2.939 H 0.121 V 2.152 H -2.1 V 0.787 H 0 Z"
       style="fill:#211c1d;fill-opacity:1;fill-rule:nonzero;stroke:none"
       transform="matrix(1.3333333,0,0,-1.3333333,288.05387,324.87187)"
       clip-path="url(#clipPath221)" />
    <path
       id="path222"
       d="m 0,0 h 1.016 v -4.468 h 2.29 V -5.276 H 0 Z"
       style="fill:#211c1d;fill-opacity:1;fill-rule:nonzero;stroke:none"
       transform="matrix(1.3333333,0,0,-1.3333333,289.57173,320.95267)"
       clip-path="url(#clipPath223)" />
    <path
       id="path224"
       d="m 0,0 h -2.1 v -1.547 h 2.35 v -0.79 H -3.116 V 2.939 H 0.122 V 2.152 H -2.1 V 0.787 H 0 Z"
       style="fill:#211c1d;fill-opacity:1;fill-rule:nonzero;stroke:none"
       transform="matrix(1.3333333,0,0,-1.3333333,299.1556,324.87187)"
       clip-path="url(#clipPath225)" />
    <path
       id="path226"
       d="m 0,0 c -0.246,-0.117 -0.77,-0.246 -1.441,-0.246 -1.771,0 -2.843,1.063 -2.843,2.666 0,1.739 1.272,2.786 2.976,2.786 0.667,0 1.144,-0.133 1.356,-0.232 L -0.175,4.207 c -0.266,0.107 -0.634,0.201 -1.097,0.201 -1.128,0 -1.942,-0.673 -1.942,-1.937 0,-1.161 0.715,-1.909 1.939,-1.909 0.411,0 0.842,0.08 1.104,0.199 z"
       style="fill:#211c1d;fill-opacity:1;fill-rule:nonzero;stroke:none"
       transform="matrix(1.3333333,0,0,-1.3333333,306.0032,327.78227)"
       clip-path="url(#clipPath227)" />
    <path
       id="path228"
       d="M 0,0 H -1.592 V 0.809 H 2.617 V 0 h -1.6 V -4.467 H 0 Z"
       style="fill:#211c1d;fill-opacity:1;fill-rule:nonzero;stroke:none"
       transform="matrix(1.3333333,0,0,-1.3333333,308.7992,322.03093)"
       clip-path="url(#clipPath229)" />
    <path
       id="path230"
       d="m 0,0 c 0,-1.077 0.576,-1.936 1.551,-1.936 0.982,0 1.539,0.871 1.539,1.978 0,0.994 -0.52,1.937 -1.539,1.937 C 0.54,1.979 0,1.09 0,0 m 4.161,0.075 c 0,-1.767 -1.13,-2.782 -2.667,-2.782 -1.574,0 -2.566,1.139 -2.566,2.693 0,1.621 1.072,2.759 2.65,2.759 1.626,0 2.583,-1.164 2.583,-2.67"
       style="fill:#211c1d;fill-opacity:1;fill-rule:nonzero;stroke:none"
       transform="matrix(1.3333333,0,0,-1.3333333,313.88867,324.50133)"
       clip-path="url(#clipPath231)" />
    <path
       id="path232"
       d="M 0,0 H 0.609 C 1.287,0 1.715,0.34 1.715,0.871 1.715,1.449 1.287,1.713 0.632,1.713 0.306,1.713 0.101,1.688 0,1.666 Z m -1.006,2.328 c 0.38,0.07 0.945,0.114 1.533,0.114 0.804,0 1.351,-0.128 1.724,-0.426 0.305,-0.238 0.476,-0.607 0.476,-1.05 0,-0.686 -0.485,-1.149 -1.012,-1.327 v -0.027 c 0.403,-0.139 0.641,-0.507 0.78,-1.013 0.176,-0.661 0.323,-1.273 0.442,-1.473 H 1.884 C 1.804,-2.719 1.67,-2.287 1.513,-1.629 1.357,-0.94 1.089,-0.722 0.516,-0.706 H 0 v -2.168 h -1.006 z"
       style="fill:#211c1d;fill-opacity:1;fill-rule:nonzero;stroke:none"
       transform="matrix(1.3333333,0,0,-1.3333333,321.9496,324.1564)"
       clip-path="url(#clipPath233)" />
    <path
       id="path234"
       d="m 0,0 -0.441,1.303 c -0.102,0.32 -0.195,0.679 -0.277,0.981 H -0.737 C -0.817,1.982 -0.901,1.62 -1.001,1.303 L -1.426,0 Z m -1.598,-0.727 -0.478,-1.492 h -1.047 l 1.787,5.275 h 1.292 L 1.764,-2.219 H 0.678 l -0.503,1.492 z"
       style="fill:#211c1d;fill-opacity:1;fill-rule:nonzero;stroke:none"
       transform="matrix(1.3333333,0,0,-1.3333333,330.5676,325.02787)"
       clip-path="url(#clipPath235)" />
    <path
       id="path236"
       d="M 0,0 H 1.012 V -4.468 H 3.303 V -5.276 H 0 Z"
       style="fill:#211c1d;fill-opacity:1;fill-rule:nonzero;stroke:none"
       transform="matrix(1.3333333,0,0,-1.3333333,333.9584,320.95267)"
       clip-path="url(#clipPath237)" />
    <path
       id="path238"
       d="m 0,0 c -0.859,1.601 -2.188,2.4 -3.979,2.4 -1.414,0 -2.585,-0.491 -3.5,-1.478 -0.921,-0.98 -1.382,-2.237 -1.382,-3.757 0,-1.46 0.452,-2.678 1.356,-3.634 0.906,-0.956 2.044,-1.432 3.431,-1.432 1.4,0 2.517,0.417 3.346,1.262 0.397,0.397 0.708,0.874 0.954,1.436 l 7.11,0.012 c -0.619,-2.658 -1.746,-4.78 -3.379,-6.372 -2.029,-1.973 -4.671,-2.955 -7.936,-2.955 -3.32,0 -6.093,1.122 -8.328,3.359 -2.234,2.235 -3.353,5.009 -3.353,8.324 0,3.34 1.139,6.147 3.424,8.421 2.271,2.274 5.077,3.415 8.421,3.415 3.28,0 6.022,-1.116 8.219,-3.348 1.379,-1.399 2.39,-3.28 3.035,-5.667 z"
       style="fill:#365eb2;fill-opacity:1;fill-rule:nonzero;stroke:none"
       transform="matrix(1.3333333,0,0,-1.3333333,217.5552,296.73653)"
       clip-path="url(#clipPath239)" />
    <path
       id="path240"
       d="m 0,0 v 14.885 c 0,2.61 0.78,4.699 2.326,6.269 1.557,1.568 3.625,2.351 6.207,2.351 2.574,0 4.535,-0.762 5.897,-2.285 1.37,-1.523 2.055,-3.709 2.055,-6.569 V 0 H 9.7 v 14.651 c 0,1.397 -0.491,2.097 -1.487,2.097 -0.957,0 -1.436,-0.7 -1.436,-2.097 L 6.777,0 Z"
       style="fill:#365eb2;fill-opacity:1;fill-rule:nonzero;stroke:none"
       transform="matrix(1.3333333,0,0,-1.3333333,233.02133,316.07573)"
       clip-path="url(#clipPath241)" />
    <path
       id="path242"
       d="m 0,0 v -5.229 h -4.53 c -0.614,0 -1.05,-0.092 -1.307,-0.275 -0.257,-0.184 -0.389,-0.492 -0.389,-0.928 0,-0.494 0.132,-0.816 0.395,-0.972 0.265,-0.156 0.799,-0.231 1.611,-0.231 h 4.668 v -6.715 h -5.456 c -2.564,0 -4.526,0.622 -5.881,1.852 -1.361,1.232 -2.031,3.014 -2.031,5.346 v 9.2 c 0,2.248 0.633,3.993 1.917,5.229 1.284,1.241 3.084,1.857 5.412,1.857 H 0.448 V 2.393 H -3.98 c -1.197,0 -1.798,-0.39 -1.798,-1.171 0,-0.457 0.145,-0.777 0.426,-0.956 C -5.061,0.091 -4.557,0 -3.826,0 Z"
       style="fill:#365eb2;fill-opacity:1;fill-rule:nonzero;stroke:none"
       transform="matrix(1.3333333,0,0,-1.3333333,277.7752,296.9424)"
       clip-path="url(#clipPath243)" />
    <path
       id="path244"
       d="M 0,0 C 8.788,30.571 45.045,41.468 69.046,28.349 78.654,23.097 86.908,13.66 91.112,3.168 91.642,1.84 93.091,1.151 94.428,1.65 95.759,2.145 96.432,3.652 95.937,4.988 91.595,16.689 82.288,27.252 71.568,32.842 38.602,50.048 5.221,26.35 -1.129,-0.58 l 0.017,-0.089 c -0.033,-0.229 0.099,-0.438 0.324,-0.484 0.224,-0.048 0.437,0.099 0.486,0.32 z"
       style="fill:#efbd17;fill-opacity:1;fill-rule:nonzero;stroke:none"
       transform="matrix(1.3333333,0,0,-1.3333333,197.17827,283.62453)"
       clip-path="url(#clipPath245)" />
    <path
       id="path246"
       d="m 0,0 c -0.119,-0.196 -0.387,-0.239 -0.576,-0.113 -0.187,0.124 -0.236,0.378 -0.112,0.571 l 0.07,0.114 c 15.592,22.533 49.764,20.601 60.866,-6.482 1.944,-4.759 2.581,-10.052 2.154,-15.234 l -0.085,-0.727 c 0,-1.431 -1.16,-2.593 -2.595,-2.593 -1.431,0 -2.599,1.162 -2.599,2.593 l 0.055,1.034 c 0.36,4.633 -0.362,8.956 -1.63,12.605 C 45.41,20.97 11.129,16.002 0.145,0.275 Z"
       style="fill:#365eb2;fill-opacity:1;fill-rule:nonzero;stroke:none"
       transform="matrix(1.3333333,0,0,-1.3333333,224.63387,276.28333)"
       clip-path="url(#clipPath247)" />
    <path
       id="path248"
       d="m 0,0 c -0.384,-1.001 -1.356,-1.702 -2.491,-1.702 -1.47,0 -2.662,1.194 -2.662,2.666 l 0.51,1.806 c 0.519,1.509 0.923,3.174 1.176,5.017 2.805,20.595 -20.71,34.538 -38.286,20.39 -0.175,-0.145 -0.429,-0.119 -0.573,0.062 -0.151,0.177 -0.115,0.427 0.057,0.581 C -23.97,44.586 5.041,31.391 1.41,5.635 1.159,3.872 0.772,2.241 0.28,0.748 Z"
       style="fill:#d81a36;fill-opacity:1;fill-rule:nonzero;stroke:none"
       transform="matrix(1.3333333,0,0,-1.3333333,294.4448,314.338)"
       clip-path="url(#clipPath249)" />
    <path
       id="path250"
       d="m 0,0 c -0.08,-0.216 -0.301,-0.342 -0.516,-0.272 -0.216,0.067 -0.337,0.299 -0.273,0.514 L -0.75,0.456 C 9.139,23.838 40.119,37.927 65.778,17.298 70.308,13.655 75.108,7.493 77.893,1 c 1.339,-3.136 2.272,-6.337 2.827,-9.557 l 0.236,-1.644 c 0,-1.47 -1.188,-2.668 -2.666,-2.668 -1.471,0 -2.667,1.198 -2.667,2.668 l -0.11,0.606 c -0.546,2.881 -1.42,5.756 -2.557,8.536 C 70.529,4.865 66.638,9.762 62.438,13.376 42.625,30.433 13.743,25.791 0.952,1.292 0.878,1.148 0.65,0.849 0.576,0.71 Z"
       style="fill:#efbd17;fill-opacity:1;fill-rule:nonzero;stroke:none"
       transform="matrix(1.3333333,0,0,-1.3333333,210.34613,279.32853)"
       clip-path="url(#clipPath251)" />
    <path
       id="path252"
       d="m 266.374,595.649 h -1.112 v 72.022 h 1.112 z"
       style="fill:#365eb2;fill-opacity:1;fill-rule:nonzero;stroke:none"
       transform="matrix(1.3333333,0,0,-1.3333333,0,1122.52)"
       clip-path="url(#clipPath253)" />
    <path
       id="path254"
       d="m 0,0 v -9.757 h 9.324 v -1.266 H 0 v -9.824 h 10.323 v -1.265 H -1.499 V 1.265 H 10.323 V 0 Z"
       style="fill:#264794;fill-opacity:1;fill-rule:nonzero;stroke:none"
       transform="matrix(1.3333333,0,0,-1.3333333,375.98787,236.154)"
       clip-path="url(#clipPath255)" />
    <path
       id="path256"
       d="M 0,0 H 8.692 V -1.266 H -1.499 V 22.112 H 0 Z"
       style="fill:#264794;fill-opacity:1;fill-rule:nonzero;stroke:none"
       transform="matrix(1.3333333,0,0,-1.3333333,395.5688,263.94947)"
       clip-path="url(#clipPath257)" />
    <path
       id="path258"
       d="m 0,0 v -9.757 h 9.324 v -1.266 H 0 v -9.824 h 10.323 v -1.265 H -1.499 V 1.265 H 10.323 V 0 Z"
       style="fill:#264794;fill-opacity:1;fill-rule:nonzero;stroke:none"
       transform="matrix(1.3333333,0,0,-1.3333333,411.46427,236.154)"
       clip-path="url(#clipPath259)" />
    <path
       id="path260"
       d="m 0,0 c 0.966,1.809 2.298,3.224 3.996,4.246 1.699,1.021 3.602,1.532 5.711,1.532 2.665,0 4.907,-0.622 6.727,-1.865 1.82,-1.244 3.153,-2.986 3.996,-5.228 H 18.699 C 18.033,0.461 16.928,1.865 15.385,2.897 13.842,3.929 11.949,4.446 9.707,4.446 7.909,4.446 6.277,4.018 4.812,3.164 3.347,2.309 2.192,1.077 1.349,-0.533 0.505,-2.143 0.083,-4.024 0.083,-6.177 c 0,-2.132 0.422,-3.991 1.266,-5.578 0.843,-1.588 1.998,-2.815 3.463,-3.68 1.465,-0.866 3.097,-1.299 4.895,-1.299 2.242,0 4.135,0.516 5.678,1.549 1.543,1.032 2.648,2.436 3.314,4.212 h 1.731 c -0.843,-2.242 -2.176,-3.985 -3.996,-5.228 -1.82,-1.244 -4.062,-1.865 -6.727,-1.865 -2.109,0 -4.012,0.505 -5.711,1.515 -1.698,1.01 -3.03,2.42 -3.996,4.229 -0.966,1.81 -1.449,3.858 -1.449,6.145 0,2.308 0.483,4.367 1.449,6.177"
       style="fill:#264794;fill-opacity:1;fill-rule:nonzero;stroke:none"
       transform="matrix(1.3333333,0,0,-1.3333333,429.73533,241.85947)"
       clip-path="url(#clipPath261)" />
    <path
       id="path262"
       d="m 0,0 c 0.966,1.809 2.298,3.224 3.996,4.246 1.699,1.021 3.602,1.532 5.711,1.532 2.665,0 4.907,-0.622 6.727,-1.865 1.82,-1.244 3.153,-2.986 3.996,-5.228 H 18.699 C 18.033,0.461 16.928,1.865 15.385,2.897 13.842,3.929 11.949,4.446 9.707,4.446 7.909,4.446 6.277,4.018 4.812,3.164 3.347,2.309 2.192,1.077 1.349,-0.533 0.505,-2.143 0.083,-4.024 0.083,-6.177 c 0,-2.132 0.422,-3.991 1.266,-5.578 0.843,-1.588 1.998,-2.815 3.463,-3.68 1.465,-0.866 3.097,-1.299 4.895,-1.299 2.242,0 4.135,0.516 5.678,1.549 1.543,1.032 2.648,2.436 3.314,4.212 h 1.731 c -0.843,-2.242 -2.176,-3.985 -3.996,-5.228 -1.82,-1.244 -4.062,-1.865 -6.727,-1.865 -2.109,0 -4.012,0.505 -5.711,1.515 -1.698,1.01 -3.03,2.42 -3.996,4.229 -0.966,1.81 -1.449,3.858 -1.449,6.145 0,2.308 0.483,4.367 1.449,6.177"
       style="fill:#264794;fill-opacity:1;fill-rule:nonzero;stroke:none"
       transform="matrix(1.3333333,0,0,-1.3333333,461.70427,241.85947)"
       clip-path="url(#clipPath263)" />
    <path
       id="path264"
       d="m 371.237,642.662 h -1.499 v 23.378 h 1.499 z"
       style="fill:#264794;fill-opacity:1;fill-rule:nonzero;stroke:none"
       transform="matrix(1.3333333,0,0,-1.3333333,0,1122.52)"
       clip-path="url(#clipPath265)" />
    <path
       id="path266"
       d="m 0,0 c 1.487,0.866 2.658,2.098 3.513,3.696 0.855,1.599 1.282,3.464 1.282,5.595 0,2.153 -0.427,4.03 -1.282,5.628 -0.855,1.598 -2.026,2.83 -3.513,3.696 -1.488,0.866 -3.153,1.299 -4.995,1.299 -1.843,0 -3.508,-0.433 -4.995,-1.299 -1.488,-0.866 -2.665,-2.098 -3.53,-3.696 -0.866,-1.598 -1.299,-3.475 -1.299,-5.628 0,-2.131 0.433,-3.996 1.299,-5.595 0.865,-1.598 2.042,-2.83 3.53,-3.696 1.487,-0.866 3.152,-1.299 4.995,-1.299 1.842,0 3.507,0.433 4.995,1.299 m -10.823,-1.116 c -1.732,1.01 -3.086,2.426 -4.063,4.246 -0.977,1.82 -1.465,3.874 -1.465,6.161 0,2.309 0.488,4.368 1.465,6.177 0.977,1.81 2.331,3.219 4.063,4.23 1.732,1.01 3.674,1.515 5.828,1.515 2.153,0 4.096,-0.505 5.828,-1.515 1.731,-1.011 3.085,-2.42 4.062,-4.23 C 5.872,13.659 6.361,11.6 6.361,9.291 6.361,7.004 5.872,4.95 4.895,3.13 3.918,1.31 2.564,-0.106 0.833,-1.116 c -1.732,-1.01 -3.675,-1.515 -5.828,-1.515 -2.154,0 -4.096,0.505 -5.828,1.515"
       style="fill:#264794;fill-opacity:1;fill-rule:nonzero;stroke:none"
       transform="matrix(1.3333333,0,0,-1.3333333,520.64707,262.48413)"
       clip-path="url(#clipPath267)" />
    <path
       id="path268"
       d="M 0,0 H -1.498 L -15.219,20.913 V 0 h -1.498 v 23.344 h 1.498 L -1.498,2.498 V 23.344 H 0 Z"
       style="fill:#264794;fill-opacity:1;fill-rule:nonzero;stroke:none"
       transform="matrix(1.3333333,0,0,-1.3333333,555.2356,265.6368)"
       clip-path="url(#clipPath269)" />
    <path
       id="path270"
       d="m 0,0 v -9.757 h 9.324 v -1.266 H 0 v -9.824 h 10.323 v -1.265 H -1.499 V 1.265 H 10.323 V 0 Z"
       style="fill:#264794;fill-opacity:1;fill-rule:nonzero;stroke:none"
       transform="matrix(1.3333333,0,0,-1.3333333,562.33973,236.154)"
       clip-path="url(#clipPath271)" />
    <path
       id="path272"
       d="m 0,0 c -1.132,0.533 -2.015,1.254 -2.647,2.165 -0.633,0.91 -0.994,1.92 -1.083,3.03 h 1.565 C -1.987,3.974 -1.415,2.886 -0.45,1.931 0.516,0.977 1.987,0.5 3.963,0.5 5.117,0.5 6.122,0.71 6.977,1.132 7.831,1.554 8.492,2.131 8.958,2.864 9.424,3.597 9.657,4.407 9.657,5.295 9.657,6.427 9.385,7.326 8.842,7.992 8.297,8.658 7.62,9.158 6.81,9.491 5.999,9.824 4.906,10.179 3.53,10.557 c -1.51,0.399 -2.725,0.799 -3.647,1.198 -0.921,0.4 -1.698,1.016 -2.331,1.849 -0.632,0.832 -0.949,1.97 -0.949,3.413 0,1.11 0.294,2.126 0.883,3.047 0.588,0.921 1.426,1.648 2.514,2.181 1.088,0.533 2.342,0.8 3.763,0.8 2.065,0 3.73,-0.511 4.995,-1.532 1.266,-1.022 2.02,-2.276 2.265,-3.763 H 9.424 c -0.133,0.599 -0.427,1.209 -0.882,1.831 -0.455,0.621 -1.099,1.138 -1.932,1.549 -0.832,0.41 -1.826,0.616 -2.98,0.616 -1.554,0 -2.864,-0.428 -3.93,-1.282 -1.065,-0.855 -1.598,-1.993 -1.598,-3.414 0,-1.132 0.277,-2.037 0.832,-2.714 0.555,-0.677 1.238,-1.188 2.048,-1.532 C 1.793,12.46 2.886,12.11 4.263,11.755 5.795,11.333 7.01,10.928 7.909,10.54 8.808,10.151 9.574,9.541 10.207,8.708 10.84,7.876 11.156,6.749 11.156,5.328 11.156,4.284 10.878,3.297 10.323,2.364 9.768,1.432 8.952,0.671 7.876,0.083 6.799,-0.505 5.495,-0.799 3.963,-0.799 2.453,-0.799 1.132,-0.533 0,0"
       style="fill:#264794;fill-opacity:1;fill-rule:nonzero;stroke:none"
       transform="matrix(1.3333333,0,0,-1.3333333,583.65227,264.882)"
       clip-path="url(#clipPath273)" />
    <path
       id="path274"
       d="M 0,0 C -1.011,0.442 -1.804,1.069 -2.382,1.881 -2.959,2.693 -3.248,3.64 -3.248,4.723 H 0.054 C 0.126,3.911 0.447,3.243 1.015,2.72 1.583,2.196 2.382,1.935 3.41,1.935 c 1.065,0 1.895,0.257 2.49,0.771 0.596,0.515 0.893,1.178 0.893,1.99 0,0.631 -0.185,1.145 -0.555,1.543 -0.37,0.396 -0.83,0.703 -1.38,0.92 C 4.308,7.375 3.546,7.609 2.571,7.862 1.344,8.187 0.347,8.516 -0.42,8.85 c -0.767,0.334 -1.42,0.853 -1.962,1.556 -0.541,0.704 -0.812,1.642 -0.812,2.815 0,1.083 0.271,2.03 0.812,2.842 0.542,0.812 1.299,1.434 2.274,1.867 0.974,0.434 2.102,0.65 3.383,0.65 1.822,0 3.315,-0.456 4.479,-1.367 1.164,-0.911 1.809,-2.161 1.935,-3.748 H 6.279 C 6.225,14.15 5.9,14.737 5.305,15.224 4.709,15.711 3.924,15.955 2.95,15.955 c -0.884,0 -1.606,-0.226 -2.165,-0.677 -0.56,-0.451 -0.839,-1.101 -0.839,-1.949 0,-0.577 0.176,-1.051 0.528,-1.42 0.352,-0.37 0.798,-0.663 1.339,-0.88 0.542,-0.217 1.281,-0.451 2.22,-0.704 C 5.278,9.982 6.293,9.639 7.077,9.297 7.862,8.954 8.53,8.426 9.08,7.713 9.63,7.001 9.906,6.049 9.906,4.858 9.906,3.901 9.649,2.999 9.134,2.152 8.62,1.303 7.871,0.622 6.888,0.108 5.904,-0.406 4.745,-0.663 3.41,-0.663 2.147,-0.663 1.01,-0.442 0,0"
       style="fill:#264794;fill-opacity:1;fill-rule:nonzero;stroke:none"
       transform="matrix(1.3333333,0,0,-1.3333333,378.08507,296.2412)"
       clip-path="url(#clipPath275)" />
    <path
       id="path276"
       d="M 0,0 V -5.521 H 6.496 V -8.038 H 0 v -5.765 H 7.307 V -16.32 H -3.086 V 2.517 H 7.307 V 0 Z"
       style="fill:#264794;fill-opacity:1;fill-rule:nonzero;stroke:none"
       transform="matrix(1.3333333,0,0,-1.3333333,398.97893,275.11267)"
       clip-path="url(#clipPath277)" />
    <path
       id="path278"
       d="m 0,0 c 0.857,1.462 2.021,2.603 3.491,3.424 1.471,0.821 3.081,1.231 4.831,1.231 2.003,0 3.785,-0.492 5.346,-1.475 1.56,-0.983 2.693,-2.377 3.396,-4.181 H 13.356 C 12.869,-0.009 12.193,0.731 11.327,1.218 10.461,1.705 9.459,1.949 8.322,1.949 7.077,1.949 5.968,1.669 4.993,1.11 4.019,0.55 3.257,-0.253 2.706,-1.299 2.156,-2.346 1.881,-3.564 1.881,-4.953 c 0,-1.389 0.275,-2.607 0.825,-3.654 0.551,-1.046 1.313,-1.853 2.287,-2.422 0.975,-0.568 2.084,-0.852 3.329,-0.852 1.137,0 2.139,0.243 3.005,0.73 0.866,0.488 1.542,1.227 2.029,2.22 h 3.708 c -0.703,-1.805 -1.836,-3.194 -3.396,-4.168 -1.561,-0.975 -3.343,-1.462 -5.346,-1.462 -1.768,0 -3.383,0.41 -4.844,1.232 -1.462,0.82 -2.621,1.962 -3.478,3.423 -0.857,1.462 -1.286,3.113 -1.286,4.953 0,1.841 0.429,3.492 1.286,4.953"
       style="fill:#264794;fill-opacity:1;fill-rule:nonzero;stroke:none"
       transform="matrix(1.3333333,0,0,-1.3333333,412.81773,277.6748)"
       clip-path="url(#clipPath279)" />
    <path
       id="path280"
       d="m 0,0 c 0.857,1.462 2.021,2.603 3.491,3.424 1.471,0.821 3.081,1.231 4.831,1.231 2.003,0 3.785,-0.492 5.346,-1.475 1.56,-0.983 2.693,-2.377 3.396,-4.181 H 13.356 C 12.869,-0.009 12.193,0.731 11.327,1.218 10.461,1.705 9.459,1.949 8.322,1.949 7.077,1.949 5.968,1.669 4.993,1.11 4.019,0.55 3.257,-0.253 2.706,-1.299 2.156,-2.346 1.881,-3.564 1.881,-4.953 c 0,-1.389 0.275,-2.607 0.825,-3.654 0.551,-1.046 1.313,-1.853 2.287,-2.422 0.975,-0.568 2.084,-0.852 3.329,-0.852 1.137,0 2.139,0.243 3.005,0.73 0.866,0.488 1.542,1.227 2.029,2.22 h 3.708 c -0.703,-1.805 -1.836,-3.194 -3.396,-4.168 -1.561,-0.975 -3.343,-1.462 -5.346,-1.462 -1.768,0 -3.383,0.41 -4.844,1.232 -1.462,0.82 -2.621,1.962 -3.478,3.423 -0.857,1.462 -1.286,3.113 -1.286,4.953 0,1.841 0.429,3.492 1.286,4.953"
       style="fill:#264794;fill-opacity:1;fill-rule:nonzero;stroke:none"
       transform="matrix(1.3333333,0,0,-1.3333333,439.41307,277.6748)"
       clip-path="url(#clipPath281)" />
    <path
       id="path282"
       d="m 352.335,619.235 h -3.086 v 18.81 h 3.086 z"
       style="fill:#264794;fill-opacity:1;fill-rule:nonzero;stroke:none"
       transform="matrix(1.3333333,0,0,-1.3333333,0,1122.52)"
       clip-path="url(#clipPath283)" />
    <path
       id="path284"
       d="m 0,0 c 0.974,0.568 1.736,1.38 2.287,2.436 0.55,1.056 0.825,2.278 0.825,3.667 0,1.389 -0.275,2.607 -0.825,3.654 -0.551,1.046 -1.313,1.849 -2.287,2.409 -0.974,0.559 -2.084,0.839 -3.329,0.839 -1.245,0 -2.355,-0.28 -3.329,-0.839 -0.974,-0.56 -1.737,-1.363 -2.287,-2.409 -0.551,-1.047 -0.826,-2.265 -0.826,-3.654 0,-1.389 0.275,-2.611 0.826,-3.667 0.55,-1.056 1.313,-1.868 2.287,-2.436 0.974,-0.568 2.084,-0.852 3.329,-0.852 1.245,0 2.355,0.284 3.329,0.852 m -8.16,-2.3 c -1.471,0.82 -2.635,1.966 -3.491,3.437 -0.858,1.47 -1.286,3.126 -1.286,4.966 0,1.841 0.428,3.492 1.286,4.953 0.856,1.462 2.02,2.603 3.491,3.424 1.47,0.821 3.081,1.231 4.831,1.231 1.768,0 3.387,-0.41 4.858,-1.231 1.47,-0.821 2.63,-1.962 3.478,-3.424 C 5.855,9.595 6.279,7.944 6.279,6.103 6.279,4.263 5.855,2.607 5.007,1.137 4.159,-0.334 2.999,-1.48 1.529,-2.3 c -1.471,-0.822 -3.09,-1.232 -4.858,-1.232 -1.75,0 -3.361,0.41 -4.831,1.232"
       style="fill:#264794;fill-opacity:1;fill-rule:nonzero;stroke:none"
       transform="matrix(1.3333333,0,0,-1.3333333,489.77147,292.41627)"
       clip-path="url(#clipPath285)" />
    <path
       id="path286"
       d="m 0,0 h -3.086 l -9.283,14.047 V 0 h -3.085 v 18.837 h 3.085 L -3.086,4.818 V 18.837 H 0 Z"
       style="fill:#264794;fill-opacity:1;fill-rule:nonzero;stroke:none"
       transform="matrix(1.3333333,0,0,-1.3333333,521.49133,296.8728)"
       clip-path="url(#clipPath287)" />
    <path
       id="path288"
       d="M 0,0 -3.058,8.742 -6.144,0 Z M 0.866,-2.517 H -7.01 L -8.363,-6.36 h -3.221 l 6.739,18.837 h 3.573 L 5.467,-6.36 H 2.219 Z"
       style="fill:#264794;fill-opacity:1;fill-rule:nonzero;stroke:none"
       transform="matrix(1.3333333,0,0,-1.3333333,539.57053,288.39253)"
       clip-path="url(#clipPath289)" />
    <path
       id="path290"
       d="M 0,0 H 6.36 V -2.49 H -3.086 V 16.32 H 0 Z"
       style="fill:#264794;fill-opacity:1;fill-rule:nonzero;stroke:none"
       transform="matrix(1.3333333,0,0,-1.3333333,553.57187,293.55293)"
       clip-path="url(#clipPath291)" />
    <path
       id="path292"
       d="M 0,0 V -5.521 H 6.496 V -8.038 H 0 v -5.765 H 7.307 V -16.32 H -3.086 V 2.517 H 7.307 V 0 Z"
       style="fill:#264794;fill-opacity:1;fill-rule:nonzero;stroke:none"
       transform="matrix(1.3333333,0,0,-1.3333333,568.29467,275.11267)"
       clip-path="url(#clipPath293)" />
    <path
       id="path294"
       d="M 0,0 C -1.011,0.442 -1.804,1.069 -2.382,1.881 -2.959,2.693 -3.248,3.64 -3.248,4.723 H 0.054 C 0.126,3.911 0.447,3.243 1.015,2.72 1.583,2.196 2.382,1.935 3.41,1.935 c 1.065,0 1.895,0.257 2.49,0.771 0.596,0.515 0.893,1.178 0.893,1.99 0,0.631 -0.185,1.145 -0.555,1.543 -0.37,0.396 -0.83,0.703 -1.38,0.92 C 4.308,7.375 3.546,7.609 2.571,7.862 1.344,8.187 0.347,8.516 -0.42,8.85 c -0.767,0.334 -1.42,0.853 -1.962,1.556 -0.541,0.704 -0.812,1.642 -0.812,2.815 0,1.083 0.271,2.03 0.812,2.842 0.542,0.812 1.299,1.434 2.274,1.867 0.974,0.434 2.102,0.65 3.383,0.65 1.822,0 3.315,-0.456 4.479,-1.367 1.164,-0.911 1.809,-2.161 1.935,-3.748 H 6.279 C 6.225,14.15 5.9,14.737 5.305,15.224 4.709,15.711 3.924,15.955 2.95,15.955 c -0.884,0 -1.606,-0.226 -2.165,-0.677 -0.56,-0.451 -0.839,-1.101 -0.839,-1.949 0,-0.577 0.176,-1.051 0.528,-1.42 0.352,-0.37 0.798,-0.663 1.339,-0.88 0.542,-0.217 1.281,-0.451 2.22,-0.704 C 5.278,9.982 6.293,9.639 7.077,9.297 7.862,8.954 8.53,8.426 9.08,7.713 9.63,7.001 9.906,6.049 9.906,4.858 9.906,3.901 9.649,2.999 9.134,2.152 8.62,1.303 7.871,0.622 6.888,0.108 5.904,-0.406 4.745,-0.663 3.41,-0.663 2.147,-0.663 1.01,-0.442 0,0"
       style="fill:#264794;fill-opacity:1;fill-rule:nonzero;stroke:none"
       transform="matrix(1.3333333,0,0,-1.3333333,585.5072,296.2412)"
       clip-path="url(#clipPath295)" />
    <path
       id="path296"
       d="m 0,0 -6.116,-11.83 v -5.84 h -4.305 v 5.84 L -16.537,0 h 4.883 l 3.423,-7.4 3.398,7.4 z"
       style="fill:#264794;fill-opacity:1;fill-rule:nonzero;stroke:none"
       transform="matrix(1.3333333,0,0,-1.3333333,393.94573,304.398)"
       clip-path="url(#clipPath297)" />
    <path
       id="path298"
       d="m 0,0 c 0.755,1.368 1.808,2.433 3.159,3.197 1.35,0.763 2.882,1.145 4.593,1.145 2.098,0 3.893,-0.554 5.387,-1.661 1.493,-1.108 2.492,-2.618 2.995,-4.531 h -4.732 c -0.352,0.738 -0.852,1.3 -1.497,1.686 -0.647,0.386 -1.381,0.579 -2.203,0.579 -1.326,0 -2.4,-0.461 -3.222,-1.384 -0.822,-0.923 -1.233,-2.156 -1.233,-3.7 0,-1.544 0.411,-2.777 1.233,-3.7 0.822,-0.923 1.896,-1.384 3.222,-1.384 0.822,0 1.556,0.192 2.203,0.579 0.645,0.385 1.145,0.947 1.497,1.686 h 4.732 c -0.503,-1.913 -1.502,-3.419 -2.995,-4.518 -1.494,-1.099 -3.289,-1.649 -5.387,-1.649 -1.711,0 -3.243,0.382 -4.593,1.145 -1.351,0.764 -2.404,1.825 -3.159,3.185 -0.755,1.359 -1.133,2.911 -1.133,4.656 0,1.745 0.378,3.301 1.133,4.669"
       style="fill:#264794;fill-opacity:1;fill-rule:nonzero;stroke:none"
       transform="matrix(1.3333333,0,0,-1.3333333,402.77133,309.9188)"
       clip-path="url(#clipPath299)" />
    <path
       id="path300"
       d="M 0,0 C 0.403,0.386 0.604,0.931 0.604,1.636 0.604,2.341 0.403,2.886 0,3.272 -0.403,3.658 -1.016,3.851 -1.837,3.851 h -2.341 v -4.43 h 2.341 C -1.016,-0.579 -0.403,-0.386 0,0 M 4.279,-1.17 C 3.809,-2.018 3.087,-2.702 2.114,-3.222 1.141,-3.742 -0.067,-4.002 -1.51,-4.002 h -2.668 v -6.343 H -8.482 V 7.324 h 6.972 c 1.409,0 2.6,-0.243 3.574,-0.729 C 3.037,6.108 3.767,5.437 4.254,4.581 4.74,3.725 4.984,2.744 4.984,1.636 4.984,0.612 4.748,-0.323 4.279,-1.17"
       style="fill:#264794;fill-opacity:1;fill-rule:nonzero;stroke:none"
       transform="matrix(1.3333333,0,0,-1.3333333,438.54627,314.164)"
       clip-path="url(#clipPath301)" />
    <path
       id="path302"
       d="m 0,0 c 0.755,1.368 1.808,2.433 3.159,3.197 1.35,0.763 2.882,1.145 4.593,1.145 2.098,0 3.893,-0.554 5.387,-1.661 1.493,-1.108 2.492,-2.618 2.995,-4.531 h -4.732 c -0.352,0.738 -0.852,1.3 -1.497,1.686 -0.647,0.386 -1.381,0.579 -2.203,0.579 -1.326,0 -2.4,-0.461 -3.222,-1.384 -0.822,-0.923 -1.233,-2.156 -1.233,-3.7 0,-1.544 0.411,-2.777 1.233,-3.7 0.822,-0.923 1.896,-1.384 3.222,-1.384 0.822,0 1.556,0.192 2.203,0.579 0.645,0.385 1.145,0.947 1.497,1.686 h 4.732 c -0.503,-1.913 -1.502,-3.419 -2.995,-4.518 -1.494,-1.099 -3.289,-1.649 -5.387,-1.649 -1.711,0 -3.243,0.382 -4.593,1.145 -1.351,0.764 -2.404,1.825 -3.159,3.185 -0.755,1.359 -1.133,2.911 -1.133,4.656 0,1.745 0.378,3.301 1.133,4.669"
       style="fill:#264794;fill-opacity:1;fill-rule:nonzero;stroke:none"
       transform="matrix(1.3333333,0,0,-1.3333333,448.14427,309.9188)"
       clip-path="url(#clipPath303)" />
    <path
       id="path304"
       d="m 0,0 c 0.755,1.368 1.808,2.433 3.159,3.197 1.35,0.763 2.882,1.145 4.593,1.145 2.098,0 3.893,-0.554 5.387,-1.661 1.493,-1.108 2.492,-2.618 2.995,-4.531 h -4.732 c -0.352,0.738 -0.852,1.3 -1.497,1.686 -0.647,0.386 -1.381,0.579 -2.203,0.579 -1.326,0 -2.4,-0.461 -3.222,-1.384 -0.822,-0.923 -1.233,-2.156 -1.233,-3.7 0,-1.544 0.411,-2.777 1.233,-3.7 0.822,-0.923 1.896,-1.384 3.222,-1.384 0.822,0 1.556,0.192 2.203,0.579 0.645,0.385 1.145,0.947 1.497,1.686 h 4.732 c -0.503,-1.913 -1.502,-3.419 -2.995,-4.518 -1.494,-1.099 -3.289,-1.649 -5.387,-1.649 -1.711,0 -3.243,0.382 -4.593,1.145 -1.351,0.764 -2.404,1.825 -3.159,3.185 -0.755,1.359 -1.133,2.911 -1.133,4.656 0,1.745 0.378,3.301 1.133,4.669"
       style="fill:#264794;fill-opacity:1;fill-rule:nonzero;stroke:none"
       transform="matrix(1.3333333,0,0,-1.3333333,473.14627,309.9188)"
       clip-path="url(#clipPath305)" />
    <path
       id="path306"
       d="M 0,0 C -1.024,0.419 -1.842,1.04 -2.454,1.863 -3.067,2.684 -3.39,3.675 -3.423,4.833 H 1.158 C 1.225,4.178 1.451,3.679 1.837,3.335 2.223,2.991 2.727,2.819 3.348,2.819 c 0.637,0 1.14,0.147 1.51,0.44 0.369,0.294 0.553,0.701 0.553,1.221 0,0.436 -0.147,0.797 -0.44,1.082 C 4.677,5.848 4.317,6.082 3.889,6.267 3.461,6.452 2.852,6.661 2.064,6.897 0.923,7.249 -0.009,7.601 -0.73,7.954 c -0.722,0.352 -1.343,0.872 -1.863,1.56 -0.52,0.688 -0.78,1.586 -0.78,2.693 0,1.645 0.596,2.933 1.787,3.864 1.191,0.931 2.744,1.397 4.657,1.397 1.946,0 3.515,-0.466 4.707,-1.397 C 8.969,15.14 9.606,13.844 9.69,12.182 H 5.034 C 5,12.752 4.791,13.202 4.405,13.529 4.019,13.856 3.524,14.02 2.92,14.02 2.399,14.02 1.98,13.881 1.661,13.604 1.342,13.327 1.183,12.929 1.183,12.409 1.183,11.838 1.451,11.393 1.988,11.075 2.525,10.756 3.364,10.412 4.505,10.043 5.646,9.657 6.573,9.288 7.287,8.935 8,8.583 8.616,8.071 9.137,7.4 9.657,6.729 9.917,5.865 9.917,4.807 9.917,3.801 9.661,2.886 9.149,2.064 8.637,1.241 7.895,0.587 6.922,0.101 5.948,-0.386 4.799,-0.629 3.473,-0.629 2.181,-0.629 1.023,-0.42 0,0"
       style="fill:#264794;fill-opacity:1;fill-rule:nonzero;stroke:none"
       transform="matrix(1.3333333,0,0,-1.3333333,501.50453,327.35307)"
       clip-path="url(#clipPath307)" />
    <path
       id="path308"
       d="m 0,0 c 1.644,1.359 2.941,2.475 3.889,3.348 0.948,0.872 1.749,1.787 2.403,2.743 0.655,0.957 0.982,1.888 0.982,2.794 0,0.688 -0.159,1.225 -0.478,1.611 -0.319,0.386 -0.797,0.579 -1.435,0.579 -0.638,0 -1.137,-0.239 -1.497,-0.718 C 3.503,9.879 3.322,9.204 3.322,8.331 h -4.153 c 0.034,1.426 0.34,2.618 0.919,3.574 0.579,0.957 1.342,1.662 2.291,2.115 0.947,0.453 2.001,0.679 3.158,0.679 1.997,0 3.503,-0.512 4.518,-1.535 1.015,-1.024 1.523,-2.358 1.523,-4.002 0,-1.796 -0.612,-3.461 -1.837,-4.996 C 8.516,2.63 6.955,1.133 5.059,-0.327 h 6.796 V -3.826 H -0.78 v 3.197 C -0.21,-0.176 0.05,0.034 0,0"
       style="fill:#efbd17;fill-opacity:1;fill-rule:nonzero;stroke:none"
       transform="matrix(1.3333333,0,0,-1.3333333,524.49267,322.52053)"
       clip-path="url(#clipPath309)" />
    <path
       id="path310"
       d="M 0,0 C -0.369,0.914 -1.133,1.372 -2.29,1.372 -3.448,1.372 -4.212,0.914 -4.581,0 -4.95,-0.915 -5.135,-2.219 -5.135,-3.914 c 0,-1.141 0.067,-2.085 0.202,-2.832 0.134,-0.746 0.406,-1.351 0.818,-1.812 0.411,-0.462 1.019,-0.692 1.825,-0.692 0.805,0 1.413,0.23 1.824,0.692 0.411,0.461 0.684,1.066 0.818,1.812 0.134,0.747 0.202,1.691 0.202,2.832 C 0.554,-2.219 0.369,-0.915 0,0 m -7.69,2.907 c 1.116,1.661 2.916,2.492 5.4,2.492 2.483,0 4.282,-0.831 5.398,-2.492 1.116,-1.661 1.674,-3.935 1.674,-6.821 0,-2.92 -0.558,-5.21 -1.674,-6.871 -1.116,-1.662 -2.915,-2.492 -5.398,-2.492 -2.484,0 -4.284,0.83 -5.4,2.492 -1.116,1.661 -1.673,3.951 -1.673,6.871 0,2.886 0.557,5.16 1.673,6.821"
       style="fill:#efbd17;fill-opacity:1;fill-rule:nonzero;stroke:none"
       transform="matrix(1.3333333,0,0,-1.3333333,554.73027,310.1536)"
       clip-path="url(#clipPath311)" />
    <path
       id="path312"
       d="m 0,0 c 1.644,1.359 2.941,2.475 3.889,3.348 0.948,0.872 1.749,1.787 2.403,2.743 0.655,0.957 0.982,1.888 0.982,2.794 0,0.688 -0.159,1.225 -0.478,1.611 -0.319,0.386 -0.797,0.579 -1.435,0.579 -0.638,0 -1.137,-0.239 -1.497,-0.718 C 3.503,9.879 3.322,9.204 3.322,8.331 h -4.153 c 0.034,1.426 0.34,2.618 0.919,3.574 0.579,0.957 1.342,1.662 2.291,2.115 0.947,0.453 2.001,0.679 3.158,0.679 1.997,0 3.503,-0.512 4.518,-1.535 1.015,-1.024 1.523,-2.358 1.523,-4.002 0,-1.796 -0.612,-3.461 -1.837,-4.996 C 8.516,2.63 6.955,1.133 5.059,-0.327 h 6.796 V -3.826 H -0.78 v 3.197 C -0.21,-0.176 0.05,0.034 0,0"
       style="fill:#365eb2;fill-opacity:1;fill-rule:nonzero;stroke:none"
       transform="matrix(1.3333333,0,0,-1.3333333,564.39547,322.52053)"
       clip-path="url(#clipPath313)" />
    <path
       id="path314"
       d="m 0,0 -6.318,-15.152 h -4.404 l 6.393,14.674 h -7.828 V 3.197 H 0 Z"
       style="fill:#d81a36;fill-opacity:1;fill-rule:nonzero;stroke:none"
       transform="matrix(1.3333333,0,0,-1.3333333,597.78773,307.75413)"
       clip-path="url(#clipPath315)" />
  </g>
</svg>
